<svg width="360" height="800" viewBox="0 0 360 800" fill="none" xmlns="http://www.w3.org/2000/svg">
<g clip-path="url(#clip0_24_426)">
<rect width="360" height="800" rx="30" fill="black"/>
<path d="M159.157 593.313C111.287 506.592 44.3116 454.205 9.00016 469.5C-67.7519 502.746 -175.164 279.257 -211.181 198.128C-218.107 182.527 -210.561 164.875 -194.441 159.26C-45.3668 107.332 610.728 -113.433 195 173C-271.999 494.758 267.501 280.741 303.5 307C315.273 315.588 244.96 439.948 159.157 593.313C238.041 736.217 265.046 972.353 13.0002 1152.5C-259.549 1347.3 -17.4033 908.899 159.157 593.313Z" fill="url(#paint0_linear_24_426)" fill-opacity="0.6"/>
</g>
<defs>
<linearGradient id="paint0_linear_24_426" x1="59.3798" y1="-780.978" x2="59.38" y2="644.582" gradientUnits="userSpaceOnUse">
<stop stop-color="#4D5761" stop-opacity="0.7"/>
<stop offset="1" stop-color="#000113"/>
</linearGradient>
<clipPath id="clip0_24_426">
<rect width="360" height="800" rx="30" fill="white"/>
</clipPath>
</defs>
</svg>
